<?xml version="1.0" encoding="UTF-8" standalone="no"?>
<!-- Generator: Adobe Illustrator 16.0.0, SVG Export Plug-In . SVG Version: 6.00 Build 0)  -->

<svg
   xmlns:dc="http://purl.org/dc/elements/1.1/"
   xmlns:cc="http://creativecommons.org/ns#"
   xmlns:rdf="http://www.w3.org/1999/02/22-rdf-syntax-ns#"
   xmlns:svg="http://www.w3.org/2000/svg"
   xmlns="http://www.w3.org/2000/svg"
   xmlns:xlink="http://www.w3.org/1999/xlink"
   xmlns:sodipodi="http://sodipodi.sourceforge.net/DTD/sodipodi-0.dtd"
   xmlns:inkscape="http://www.inkscape.org/namespaces/inkscape"
   version="1.1"
   id="Layer_1"
   x="0px"
   y="0px"
   width="144"
   height="144"
   viewBox="0 0 144 144"
   enable-background="new 0 0 800 600"
   xml:space="preserve"
   inkscape:version="0.48.3.1 r9886"
   sodipodi:docname="platformerArt2.svg"
   inkscape:export-filename="./icetiles.png"
   inkscape:export-xdpi="89.999992"
   inkscape:export-ydpi="89.999992"><metadata
   id="metadata246"><rdf:RDF><cc:Work
       rdf:about=""><dc:format>image/svg+xml</dc:format><dc:type
         rdf:resource="http://purl.org/dc/dcmitype/StillImage" /><dc:title></dc:title></cc:Work></rdf:RDF></metadata><defs
   id="defs244"><linearGradient
     inkscape:collect="always"
     id="linearGradient6197-694-590-439-4-204-896-636"><stop
       style="stop-color:#09f1f8;stop-opacity:1;"
       offset="0"
       id="stop74966" /><stop
       style="stop-color:#09f1f8;stop-opacity:0;"
       offset="1"
       id="stop74968" /></linearGradient><linearGradient
     inkscape:collect="always"
     id="linearGradient6116-9-332-174-942-275-348-364-377"><stop
       style="stop-color:#09f1f8;stop-opacity:1;"
       offset="0"
       id="stop74960" /><stop
       style="stop-color:#09f1f8;stop-opacity:0;"
       offset="1"
       id="stop74962" /></linearGradient><linearGradient
     inkscape:collect="always"
     id="linearGradient6380-296-246-921-891-897-706-390"><stop
       style="stop-color:#09f1f8;stop-opacity:1;"
       offset="0"
       id="stop74996" /><stop
       style="stop-color:#09f1f8;stop-opacity:0;"
       offset="1"
       id="stop74998" /></linearGradient><linearGradient
     inkscape:collect="always"
     id="linearGradient6116-1-8-860-888-659-455-535-176-933"><stop
       style="stop-color:#09f1f8;stop-opacity:1;"
       offset="0"
       id="stop74990" /><stop
       style="stop-color:#09f1f8;stop-opacity:0;"
       offset="1"
       id="stop74992" /></linearGradient><linearGradient
     inkscape:collect="always"
     id="linearGradient6380-888-327-255-389-425-876-565"><stop
       style="stop-color:#09f1f8;stop-opacity:1;"
       offset="0"
       id="stop75056" /><stop
       style="stop-color:#09f1f8;stop-opacity:0;"
       offset="1"
       id="stop75058" /></linearGradient><linearGradient
     inkscape:collect="always"
     id="linearGradient6116-1-8-101-154-868-913-672-643-147"><stop
       style="stop-color:#09f1f8;stop-opacity:1;"
       offset="0"
       id="stop75050" /><stop
       style="stop-color:#09f1f8;stop-opacity:0;"
       offset="1"
       id="stop75052" /></linearGradient><linearGradient
     inkscape:collect="always"
     id="linearGradient6197-508-682-535-968-900-974-5"><stop
       style="stop-color:#09f1f8;stop-opacity:1;"
       offset="0"
       id="stop75086" /><stop
       style="stop-color:#09f1f8;stop-opacity:0;"
       offset="1"
       id="stop75088" /></linearGradient><linearGradient
     inkscape:collect="always"
     id="linearGradient6116-9-362-766-869-730-415-7-235"><stop
       style="stop-color:#09f1f8;stop-opacity:1;"
       offset="0"
       id="stop75080" /><stop
       style="stop-color:#09f1f8;stop-opacity:0;"
       offset="1"
       id="stop75082" /></linearGradient><linearGradient
     inkscape:collect="always"
     id="linearGradient6116-5-957-509-408-154-501-124-171"><stop
       style="stop-color:#09f1f8;stop-opacity:1;"
       offset="0"
       id="stop75074" /><stop
       style="stop-color:#09f1f8;stop-opacity:0;"
       offset="1"
       id="stop75076" /></linearGradient><linearGradient
     inkscape:collect="always"
     id="linearGradient6392-405-126-540-374-186-669-334-542"><stop
       style="stop-color:#0eedf8;stop-opacity:1;"
       offset="0"
       id="stop75026" /><stop
       style="stop-color:#0eedf8;stop-opacity:0;"
       offset="1"
       id="stop75028" /></linearGradient><linearGradient
     inkscape:collect="always"
     id="linearGradient6116-6-546-297-609-391-531-413-901-273"><stop
       style="stop-color:#0eedf8;stop-opacity:1;"
       offset="0"
       id="stop75020" /><stop
       style="stop-color:#0eedf8;stop-opacity:0;"
       offset="1"
       id="stop75022" /></linearGradient><linearGradient
     inkscape:collect="always"
     id="linearGradient6116-8-511-460-824-522-214-546-920-230"><stop
       style="stop-color:#0eedf8;stop-opacity:1;"
       offset="0"
       id="stop75002" /><stop
       style="stop-color:#0eedf8;stop-opacity:0;"
       offset="1"
       id="stop75004" /></linearGradient><linearGradient
     inkscape:collect="always"
     xlink:href="#linearGradient6116-8-511-460-824-522-214-546-920-230"
     id="linearGradient7329"
     gradientUnits="userSpaceOnUse"
     gradientTransform="matrix(0.44735031,-0.07291365,0.07291365,0.44735031,-199.91553,438.76122)"
     x1="611.8429"
     y1="858.84076"
     x2="601.24188"
     y2="819.6507" /><linearGradient
     inkscape:collect="always"
     xlink:href="#linearGradient6116-6-546-297-609-391-531-413-901-273"
     id="linearGradient7331"
     gradientUnits="userSpaceOnUse"
     gradientTransform="matrix(0.44735031,-0.07291365,0.07291365,0.44735031,-199.91553,438.76122)"
     x1="467.52509"
     y1="908.86505"
     x2="635.32922"
     y2="968.83807" /><linearGradient
     inkscape:collect="always"
     xlink:href="#linearGradient6392-405-126-540-374-186-669-334-542"
     id="linearGradient7333"
     gradientUnits="userSpaceOnUse"
     gradientTransform="matrix(0.44735031,-0.07291365,0.07291365,0.44735031,-199.91553,438.76122)"
     x1="634.43805"
     y1="800.68213"
     x2="637.26251"
     y2="792.99652" /><linearGradient
     inkscape:collect="always"
     xlink:href="#linearGradient6116-5-957-509-408-154-501-124-171"
     id="linearGradient7335"
     gradientUnits="userSpaceOnUse"
     gradientTransform="matrix(0.36882314,-0.06571066,0.05145735,0.38442076,-131.53878,497.70616)"
     x1="518.00317"
     y1="925.60468"
     x2="542.45929"
     y2="880.76733" /><linearGradient
     inkscape:collect="always"
     xlink:href="#linearGradient6116-9-362-766-869-730-415-7-235"
     id="linearGradient7337"
     gradientUnits="userSpaceOnUse"
     gradientTransform="matrix(0.36882314,-0.06571066,0.05145735,0.38442076,-131.53878,497.70616)"
     x1="457.54633"
     y1="916.10486"
     x2="555.38971"
     y2="928.64978" /><linearGradient
     inkscape:collect="always"
     xlink:href="#linearGradient6197-508-682-535-968-900-974-5"
     id="linearGradient7339"
     gradientUnits="userSpaceOnUse"
     gradientTransform="matrix(0.36882314,-0.06571066,0.05145735,0.38442076,-131.53878,497.70616)"
     x1="524.72406"
     y1="875.38422"
     x2="526.27649"
     y2="862.96472" /><linearGradient
     inkscape:collect="always"
     xlink:href="#linearGradient6116-1-8-101-154-868-913-672-643-147"
     id="linearGradient7341"
     gradientUnits="userSpaceOnUse"
     gradientTransform="matrix(0.45321885,-0.0056026,0.0056026,0.45321885,-141.81781,395.99385)"
     x1="653.98578"
     y1="937.62555"
     x2="705.91327"
     y2="975.36139" /><linearGradient
     inkscape:collect="always"
     xlink:href="#linearGradient6380-888-327-255-389-425-876-565"
     id="linearGradient7343"
     gradientUnits="userSpaceOnUse"
     gradientTransform="matrix(0.45321885,-0.0056026,0.0056026,0.45321885,-141.81781,395.99385)"
     x1="718.80737"
     y1="885.89001"
     x2="721.66272"
     y2="875.11145" /><linearGradient
     inkscape:collect="always"
     xlink:href="#linearGradient6116-1-8-860-888-659-455-535-176-933"
     id="linearGradient7345"
     gradientUnits="userSpaceOnUse"
     gradientTransform="matrix(0.18228645,-0.12678641,0.12678641,0.18228645,-118.20589,762.79328)"
     x1="653.98578"
     y1="937.62555"
     x2="705.91327"
     y2="975.36139" /><linearGradient
     inkscape:collect="always"
     xlink:href="#linearGradient6380-296-246-921-891-897-706-390"
     id="linearGradient7347"
     gradientUnits="userSpaceOnUse"
     gradientTransform="matrix(0.18228645,-0.12678641,0.12678641,0.18228645,-118.20589,762.79328)"
     x1="718.80737"
     y1="885.89001"
     x2="721.66272"
     y2="875.11145" /><linearGradient
     inkscape:collect="always"
     xlink:href="#linearGradient6116-9-332-174-942-275-348-364-377"
     id="linearGradient7349"
     gradientUnits="userSpaceOnUse"
     gradientTransform="matrix(0.24284491,0.09736683,-0.08796526,0.21939624,108.66701,586.20864)"
     x1="457.54633"
     y1="916.10486"
     x2="555.38971"
     y2="928.64978" /><linearGradient
     inkscape:collect="always"
     xlink:href="#linearGradient6197-694-590-439-4-204-896-636"
     id="linearGradient7351"
     gradientUnits="userSpaceOnUse"
     gradientTransform="matrix(0.24284239,0.09736582,-0.08796435,0.21939396,108.66744,586.21153)"
     x1="524.72406"
     y1="875.38422"
     x2="526.27649"
     y2="862.96472" /></defs><sodipodi:namedview
   pagecolor="#ffffff"
   bordercolor="#666666"
   borderopacity="1"
   objecttolerance="10"
   gridtolerance="10"
   guidetolerance="10"
   inkscape:pageopacity="0"
   inkscape:pageshadow="2"
   inkscape:window-width="1024"
   inkscape:window-height="581"
   id="namedview242"
   showgrid="false"
   inkscape:zoom="1.460863"
   inkscape:cx="72"
   inkscape:cy="199.02971"
   inkscape:window-x="0"
   inkscape:window-y="0"
   inkscape:window-maximized="0"
   inkscape:current-layer="Layer_1"
   fit-margin-top="0"
   fit-margin-left="0"
   fit-margin-right="0"
   fit-margin-bottom="0"><inkscape:grid
     type="xygrid"
     id="grid3474"
     empspacing="2"
     visible="true"
     enabled="true"
     snapvisiblegridlinesonly="true"
     spacingx="2px"
     spacingy="2px"
     originx="-152px"
     originy="-280px" /></sodipodi:namedview>
<rect
   style="fill:#375387;fill-opacity:1;stroke:none"
   id="rect4252"
   width="144"
   height="144"
   x="0"
   y="0" />
<g
   id="g4317"
   inkscape:export-filename="/home/qubodup/platformerArt_v3/g4324.png"
   inkscape:export-xdpi="89.999992"
   inkscape:export-ydpi="89.999992"
   transform="translate(-152,-176)"><rect
     style="fill:#7ec4ff;fill-opacity:1;stroke:none"
     id="rect3478"
     width="96"
     height="16"
     x="192"
     y="184" /><path
     inkscape:connector-curvature="0"
     id="path4264"
     d="m 192,190 0,8 4,-4 4,4 4,-4 4,4 4,-4 4,4 4,-4 4,4 4,-4 4,4 4,-4 4,4 4,-4 4,4 4,-4 4,4 4,-4 4,4 4,-4 4,4 4,-4 4,4 4,-4 4,4 0,-8 z"
     style="fill:#57abe4;fill-opacity:1;stroke:none" /><path
     style="fill:#83e8ff;fill-opacity:1;stroke:none"
     d="m 192,186 0,8 4,-4 4,4 4,-4 4,4 4,-4 4,4 4,-4 4,4 4,-4 4,4 4,-4 4,4 4,-4 4,4 4,-4 4,4 4,-4 4,4 4,-4 4,4 4,-4 4,4 4,-4 4,4 0,-8 z"
     id="path4256"
     inkscape:connector-curvature="0" /><path
     inkscape:connector-curvature="0"
     id="path3482"
     d="m 192,184 0,8 4,-4 4,4 4,-4 4,4 4,-4 4,4 4,-4 4,4 4,-4 4,4 4,-4 4,4 4,-4 4,4 4,-4 4,4 4,-4 4,4 4,-4 4,4 4,-4 4,4 4,-4 4,4 0,-8 z"
     style="fill:#afffff;fill-opacity:1;stroke:none" /><path
     sodipodi:nodetypes="cccccccccccccccccccccccccccc"
     style="fill:#dfffff;fill-opacity:1;stroke:none"
     d="m 192,184 0,6 4,-4 4,4 4,-4 4,4 4,-4 4,4 4,-4 4,4 4,-4 4,4 4,-4 4,4 4,-4 4,4 4,-4 4,4 4,-4 4,4 4,-4 4,4 4,-4 4,4 4,-4 4,4 0,-6 z"
     id="path4254"
     inkscape:connector-curvature="0" /></g><g
   id="g4310"
   transform="translate(-148,-190)"
   inkscape:export-filename="/home/qubodup/platformerArt_v3/g4324.png"
   inkscape:export-xdpi="89.999992"
   inkscape:export-ydpi="89.999992"><rect
     y="198"
     x="156"
     height="16"
     width="16"
     id="rect3476"
     style="fill:#7ec4ff;fill-opacity:1;stroke:none" /><path
     sodipodi:nodetypes="ccccccccc"
     style="fill:#57abe4;fill-opacity:1;stroke:none"
     d="m 156,204 0,8 4,-4 4,4 4,-4 4,4 0,0 0,-8 z"
     id="path4266"
     inkscape:connector-curvature="0" /><path
     sodipodi:nodetypes="cccccccc"
     inkscape:connector-curvature="0"
     id="path4258"
     d="m 156,200 0,8 4,-4 4,4 4,-4 4,4 0,-8 z"
     style="fill:#83e8ff;fill-opacity:1;stroke:none" /><path
     sodipodi:nodetypes="cccccccc"
     style="fill:#afffff;fill-opacity:1;stroke:none"
     d="m 156,198 0,8 4,-4 4,4 4,-4 4,4 0,-8 z"
     id="path4260"
     inkscape:connector-curvature="0" /><path
     inkscape:connector-curvature="0"
     id="path4262"
     d="m 156,198 0,6 4,-4 4,4 4,-4 4,4 0,-6 z"
     style="fill:#dfffff;fill-opacity:1;stroke:none"
     sodipodi:nodetypes="cccccccc" /></g><g
   id="g4324"
   inkscape:export-xdpi="89.999992"
   inkscape:export-ydpi="89.999992"
   transform="translate(-152,-176)"><rect
     transform="matrix(0,1,-1,0,0,0)"
     y="-176"
     x="216"
     height="16"
     width="96"
     id="rect3480"
     style="fill:#7ec4ff;fill-opacity:1;stroke:none" /><path
     inkscape:connector-curvature="0"
     id="path4280"
     d="m 160,294 0,4 4,-4 4,4 4,-4 4,4 0,0 0,-4 -4,-4 -4,4 -4,-4 z"
     style="fill:#57abe4;fill-opacity:1;stroke:none"
     sodipodi:nodetypes="cccccccccccc" /><path
     inkscape:connector-curvature="0"
     id="path4282"
     d="m 160,286 0,4 4,-4 4,4 4,-4 4,4 0,0 0,-4 -4,-4 -4,4 -4,-4 z"
     style="fill:#57abe4;fill-opacity:1;stroke:none"
     sodipodi:nodetypes="cccccccccccc" /><path
     sodipodi:nodetypes="cccccccccccc"
     style="fill:#57abe4;fill-opacity:1;stroke:none"
     d="m 160,278 0,4 4,-4 4,4 4,-4 4,4 0,0 0,-4 -4,-4 -4,4 -4,-4 z"
     id="path4284"
     inkscape:connector-curvature="0" /><path
     inkscape:connector-curvature="0"
     id="path4286"
     d="m 160,270 0,4 4,-4 4,4 4,-4 4,4 0,0 0,-4 -4,-4 -4,4 -4,-4 z"
     style="fill:#57abe4;fill-opacity:1;stroke:none"
     sodipodi:nodetypes="cccccccccccc" /><path
     sodipodi:nodetypes="cccccccccccc"
     style="fill:#57abe4;fill-opacity:1;stroke:none"
     d="m 160,262 0,4 4,-4 4,4 4,-4 4,4 0,0 0,-4 -4,-4 -4,4 -4,-4 z"
     id="path4288"
     inkscape:connector-curvature="0" /><path
     sodipodi:nodetypes="cccccccccccc"
     style="fill:#57abe4;fill-opacity:1;stroke:none"
     d="m 160,254 0,4 4,-4 4,4 4,-4 4,4 0,0 0,-4 -4,-4 -4,4 -4,-4 z"
     id="path4290"
     inkscape:connector-curvature="0" /><path
     inkscape:connector-curvature="0"
     id="path4292"
     d="m 160,246 0,4 4,-4 4,4 4,-4 4,4 0,0 0,-4 -4,-4 -4,4 -4,-4 z"
     style="fill:#57abe4;fill-opacity:1;stroke:none"
     sodipodi:nodetypes="cccccccccccc" /><path
     sodipodi:nodetypes="cccccccccccc"
     style="fill:#57abe4;fill-opacity:1;stroke:none"
     d="m 160,238 0,4 4,-4 4,4 4,-4 4,4 0,0 0,-4 -4,-4 -4,4 -4,-4 z"
     id="path4294"
     inkscape:connector-curvature="0" /><path
     inkscape:connector-curvature="0"
     id="path4296"
     d="m 160,230 0,4 4,-4 4,4 4,-4 4,4 0,0 0,-4 -4,-4 -4,4 -4,-4 z"
     style="fill:#57abe4;fill-opacity:1;stroke:none"
     sodipodi:nodetypes="cccccccccccc" /><path
     inkscape:connector-curvature="0"
     id="path4298"
     d="m 160,222 0,4 4,-4 4,4 4,-4 4,4 0,0 0,-4 -4,-4 -4,4 -4,-4 z"
     style="fill:#57abe4;fill-opacity:1;stroke:none"
     sodipodi:nodetypes="cccccccccccc" /><path
     inkscape:connector-curvature="0"
     id="path4304"
     d="m 160,310 0,2 16,0 0,-2 -4,-4 -4,4 -4,-4 z"
     style="fill:#dfffff;fill-opacity:1;stroke:none"
     sodipodi:nodetypes="cccccccc" /><path
     sodipodi:nodetypes="cccccccc"
     style="fill:#afffff;fill-opacity:1;stroke:none"
     d="m 160,302 0,8 4,-4 4,4 4,-4 4,4 0,-8 z"
     id="path4308"
     inkscape:connector-curvature="0" /><path
     sodipodi:nodetypes="cccccccc"
     inkscape:connector-curvature="0"
     id="path4306"
     d="m 160,302 0,6 4,-4 4,4 4,-4 4,4 0,-6 z"
     style="fill:#83e8ff;fill-opacity:1;stroke:none" /><path
     sodipodi:nodetypes="cccccccccccc"
     style="fill:#57abe4;fill-opacity:1;stroke:none"
     d="m 160,302 0,4 4,-4 4,4 4,-4 4,4 0,0 0,-4 -4,-4 -4,4 -4,-4 z"
     id="path4278"
     inkscape:connector-curvature="0" /></g><g
   style="enable-background:new"
   id="g7179"
   transform="translate(-56.834845,-315.28563)"><g
     transform="translate(-177.65672,-177.74229)"
     style="display:inline"
     id="layer1"
     inkscape:label="Ebene 1"><g
       id="g11653"
       style="display:inline;enable-background:new"
       transform="matrix(2.073961,0,0,2.073961,-12.370038,-1367.0608)" /></g></g></svg>